<svg width="18" height="24" viewBox="0 0 18 24" fill="none" xmlns="http://www.w3.org/2000/svg">
<path d="M13 0H5C2.243 0 0 2.243 0 5V19C0 21.757 2.243 24 5 24H13C15.757 24 18 21.757 18 19V5C18 2.243 15.757 0 13 0ZM16 19C16 20.654 14.654 22 13 22H5C3.346 22 2 20.654 2 19V5C2 3.346 3.346 2 5 2H13C14.654 2 16 3.346 16 5V19ZM14 6C14 6.553 13.553 7 13 7H5C4.447 7 4 6.553 4 6C4 5.447 4.447 5 5 5H13C13.553 5 14 5.447 14 6ZM14 11C14 11.553 13.553 12 13 12H5C4.447 12 4 11.553 4 11C4 10.447 4.447 10 5 10H13C13.553 10 14 10.447 14 11ZM10 16C10 16.553 9.553 17 9 17H5C4.447 17 4 16.553 4 16C4 15.447 4.447 15 5 15H9C9.553 15 10 15.447 10 16Z" fill="#5A5A5A"/>
</svg>
