<svg width="24" height="24" viewBox="0 0 24 24" fill="none" xmlns="http://www.w3.org/2000/svg">
<g clip-path="url(#clip0_1_1402)">
<path d="M19 5.99999H17.774C19.187 4.61999 19.403 2.80499 18.319 1.35999C17.774 0.631986 16.979 0.161986 16.08 0.033986C15.178 -0.097014 14.285 0.135986 13.559 0.679986C12.881 1.18799 12.381 1.83499 12.012 2.49299C11.643 1.83399 11.143 1.18799 10.465 0.679986C9.739 0.134986 8.844 -0.097014 7.945 0.033986C7.046 0.161986 6.251 0.632986 5.706 1.35999C4.628 2.79699 4.836 4.59999 6.253 5.99999H5C2.243 5.99999 0 8.24299 0 11V19C0 21.757 2.243 24 5 24H19C21.757 24 24 21.757 24 19V11C24 8.24299 21.757 5.99999 19 5.99999ZM14.76 2.27999C15.005 2.09599 15.297 1.99999 15.597 1.99999C16 1.99999 16.495 2.26099 16.72 2.55999C17.361 3.41399 16.763 4.20399 16.377 4.57299C14.816 5.95799 13.16 5.99999 13.019 6.00099H13.006C13.025 5.90999 13.031 5.81499 13.023 5.71799L13.021 5.69699C13.11 5.09899 13.482 3.23799 14.76 2.27999ZM7.676 4.59599C7.262 4.20099 6.665 3.41399 7.306 2.55899C7.531 2.25999 7.858 2.06599 8.228 2.01299C8.601 1.96499 8.967 2.05599 9.266 2.27999C10.545 3.23899 10.917 5.10199 11.006 5.69599L11.004 5.71699C10.996 5.81399 11.002 5.90899 11.021 5.99999H11.008C10.867 5.99999 9.211 5.95699 7.676 4.59599ZM5 7.99899H10.824C10.073 9.94999 7.158 9.99798 6.998 9.99899C6.446 9.99899 5.999 10.447 5.999 10.999C5.999 11.551 6.447 11.999 6.999 11.999C8.416 11.999 10.696 11.511 11.999 9.94299C13.302 11.512 15.582 11.999 16.999 11.999C17.551 11.999 17.999 11.552 17.999 10.999C17.999 10.446 17.551 9.99899 16.999 9.99899C16.857 9.99899 13.921 9.97299 13.172 7.99899H18.999C20.653 7.99899 21.999 9.34499 21.999 10.999V16.999H2V10.999C2 9.34499 3.346 7.99899 5 7.99899ZM19 21.999H5C3.346 21.999 2 20.653 2 18.999H22C22 20.653 20.654 21.999 19 21.999Z" fill="#5A5A5A"/>
</g>
<defs>
<clipPath id="clip0_1_1402">
<rect width="24" height="24" fill="white"/>
</clipPath>
</defs>
</svg>
