<svg width="22" height="22" viewBox="0 0 22 22" fill="none" xmlns="http://www.w3.org/2000/svg">
<g clip-path="url(#clip0_1_1396)">
<path d="M0.000278579 10.9871C-0.00907711 13.3378 1.88897 15.251 4.2397 15.2603C5.3223 15.2646 6.36588 14.8562 7.15798 14.1182L13.5008 16.9821C13.4568 17.2192 13.4326 17.4596 13.4285 17.7008C13.4211 20.0677 15.3337 21.9925 17.7006 22C20.0675 22.0075 21.9923 20.0948 21.9998 17.7279C22.0073 15.361 20.0946 13.4362 17.7277 13.4287C16.3136 13.4243 14.9883 14.1176 14.1857 15.2819L8.22642 12.5911C8.6497 11.569 8.65133 10.421 8.23101 9.3977L14.1821 6.69318C15.5221 8.63131 18.1796 9.11609 20.1177 7.77603C22.0559 6.43598 22.5406 3.77854 21.2005 1.8404C19.8605 -0.0977259 17.203 -0.582505 15.2649 0.757548C14.1106 1.55561 13.4227 2.87017 13.4248 4.27344C13.4287 4.51497 13.4532 4.75569 13.4981 4.99306L7.17172 7.86783C5.4577 6.25835 2.76347 6.34311 1.15399 8.05713C0.409097 8.85048 -0.00375553 9.89887 0.000278579 10.9871Z" fill="#5A5A5A"/>
</g>
<defs>
<clipPath id="clip0_1_1396">
<rect width="22" height="22" fill="white"/>
</clipPath>
</defs>
</svg>
