<svg width="24" height="24" viewBox="0 0 24 24" fill="none" xmlns="http://www.w3.org/2000/svg">
<g clip-path="url(#clip0_84_637)">
<path d="M0.00028171 11.9861C-0.0099245 14.5504 2.06067 16.6376 4.6251 16.6478C5.80612 16.6525 6.94458 16.2069 7.80869 15.4019L14.7282 18.526C14.6801 18.7848 14.6537 19.047 14.6493 19.3101C14.6411 21.8922 16.7277 23.9919 19.3097 24.0001C21.8918 24.0083 23.9916 21.9218 23.9998 19.3397C24.008 16.7576 21.9214 14.6578 19.3393 14.6496C17.7966 14.6448 16.3509 15.4012 15.4753 16.6713L8.97426 13.7359C9.43602 12.6209 9.4378 11.3685 8.97927 10.2522L15.4713 7.30179C16.9332 9.41611 19.8323 9.94496 21.9466 8.48308C24.0609 7.02121 24.5897 4.12218 23.1278 2.00785C21.666 -0.106473 18.7669 -0.635323 16.6526 0.826553C15.3934 1.69717 14.6429 3.13124 14.6453 4.66208C14.6495 4.92556 14.6762 5.18816 14.7252 5.44711L7.82367 8.58323C5.95383 6.82743 3.01467 6.9199 1.25888 8.78974C0.446265 9.65521 -0.00411913 10.7989 0.00028171 11.9861Z" fill="white"/>
</g>
<defs>
<clipPath id="clip0_84_637">
<rect width="24" height="24" fill="white"/>
</clipPath>
</defs>
</svg>
